<?xml version="1.0" encoding="iso-8859-1"?>
<!-- Generator: Adobe Illustrator 16.0.0, SVG Export Plug-In . SVG Version: 6.00 Build 0)  -->
<!DOCTYPE svg PUBLIC "-//W3C//DTD SVG 1.1//EN" "http://www.w3.org/Graphics/SVG/1.1/DTD/svg11.dtd">
<svg version="1.1" id="Capa_1" xmlns="http://www.w3.org/2000/svg" xmlns:xlink="http://www.w3.org/1999/xlink" x="0px" y="0px"
	 width="791.748px" height="791.748px" viewBox="0 0 791.748 791.748" style="enable-background:new 0 0 791.748 791.748;"
	 xml:space="preserve">
<g>
	<g>
		<rect x="449.874" y="468" width="180" height="36"/>
		<path d="M269.874,324c-59.652,0-108,48.348-108,108c0,59.652,48.348,108,108,108s108-48.348,108-108h-108V324z"/>
		<polygon points="377.874,0 377.874,36 341.874,36 341.874,72 449.874,72 449.874,36 413.874,36 415.746,0 		"/>
		<path d="M107.874,684h256.392l-75.708,107.748h36.324L400.59,684h14.364l75.672,107.748h36.324L451.314,684h232.56
			c0,0,18,3.204,18-16.38c0-19.62-18-19.62-18-19.62h-576c0,0-18,0-18,19.584C89.874,687.204,107.874,684,107.874,684z"/>
		<path d="M89.874,180v360c0,72,72,72,72,72h468c0,0,72,0,72-72V180c0-72-72-72-72-72h-468C161.874,108,89.874,108,89.874,180z
			 M665.874,180v360c0,36-36,36-36,36h-468c0,0-36,0-36-36V180c0-36,36-36,36-36h468C629.874,144,665.874,144,665.874,180z"/>
		<rect x="161.874" y="180" width="468" height="72"/>
		<rect x="449.874" y="360" width="180" height="36"/>
	</g>
</g>
<g>
</g>
<g>
</g>
<g>
</g>
<g>
</g>
<g>
</g>
<g>
</g>
<g>
</g>
<g>
</g>
<g>
</g>
<g>
</g>
<g>
</g>
<g>
</g>
<g>
</g>
<g>
</g>
<g>
</g>
</svg>
