<?xml version="1.0" encoding="UTF-8"?>
<svg width="800" height="800" version="1.1" viewBox="0 0 800.00001 800.00001" xmlns="http://www.w3.org/2000/svg">
 <defs>
  <linearGradient id="c" x1="371.43" x2="121.43" y1="440" y2="708.57" gradientUnits="userSpaceOnUse">
   <stop offset="0"/>
   <stop stop-opacity="0" offset="1"/>
  </linearGradient>
  <mask id="b" maskUnits="userSpaceOnUse">
   <circle cx="400" cy="652.36" r="400" color="#000000" color-rendering="auto" fill="#fff" image-rendering="auto" shape-rendering="auto" solid-color="#000000" style="isolation:auto;mix-blend-mode:normal"/>
  </mask>
  <mask id="a" maskUnits="userSpaceOnUse">
   <circle cx="400" cy="400" r="400" color="#000000" color-rendering="auto" fill="#fff" image-rendering="auto" shape-rendering="auto" solid-color="#000000" style="isolation:auto;mix-blend-mode:normal"/>
  </mask>
 </defs>
 <g transform="translate(0 -252.36)">
  <circle cx="400" cy="652.36" r="400" color="#000000" color-rendering="auto" fill="#1c8adb" image-rendering="auto" shape-rendering="auto" solid-color="#000000" style="isolation:auto;mix-blend-mode:normal"/>
  <path transform="translate(0 252.36)" d="m276.51 248.86v2e-3c-21.19 2.7e-4 -39.73 4.3413-55.623 13.029-11.699 6.3953-21.958 14.175-30.787 23.326l-186.02 186.02c33.592 183.31 142.2 287.54 316.73 322.29 96.682-95.165 193.2-190.44 287.23-287.8 1.0124-0.97433 2.0061-1.9682 2.9805-2.9824 2.9853-2.8725 5.8106-5.9119 8.4648-9.1309 9.9598-12.079 17.479-25.963 22.564-41.645 5.2977-15.681 7.9492-31.888 7.9492-48.629 0-19.496-3.1779-37.828-9.5352-54.992-6.3573-16.953-15.469-31.787-27.336-44.502-11.655-12.503-25.853-22.46-42.594-29.877-16.529-7.2049-34.967-10.809-55.311-10.809-7.5215 0.0583-14.77 0.52563-22.053 1.6777-0.0249 3e-3 -0.0468 0.01-0.0703 0.0117-9e-3 2e-3 -0.019 2e-3 -0.0273 4e-3 -15.403 2.465-29.212 7.6222-41.424 15.473-8.1622 5.6454-15.463 12.012-22.129 18.896l-72.432 72.422 37.41-59.188c-3.5313-4.9577-7.2672-9.7535-11.254-14.346-0.0873-0.10024-0.16636-0.20661-0.2539-0.30665-8.4763-9.7478-18.115-18.329-28.922-25.746-10.595-7.2049-22.361-12.928-35.287-17.166-12.926-4.0263-27.018-6.0352-42.275-6.0352z" fill="url(#c)" mask="url(#a)" opacity=".42"/>
  <path d="m276.51 501.22c-21.191 0-39.73 4.3412-55.623 13.029-15.893 8.6883-29.14 19.921-39.736 33.695-10.384 13.986-18.115 29.667-23.201 47.043-5.2977 17.377-7.9492 34.858-7.9492 52.447 0 20.555 3.1775 40.157 9.5348 58.805 6.5692 18.86 16.107 35.497 28.61 49.907s27.971 25.85 46.407 34.326c18.436 8.6883 39.733 13.035 63.891 13.035 14.834 0 28.288-2.3327 40.367-6.9947 1.7436-0.66136 3.459-1.3684 5.1557-2.0979 0.42028-0.18086 0.83377-0.37028 1.2512-0.55547 1.288-0.57052 2.563-1.1585 3.8236-1.7689 0.45847-0.22256 0.91496-0.44646 1.3698-0.67415 1.3064-0.65266 2.5957-1.3316 3.8722-2.0278 0.29081-0.15877 0.58438-0.31351 0.87365-0.4746 1.579-0.87806 3.1376-1.7835 4.6703-2.7288 0.0138-9e-3 0.0287-0.0193 0.0431-0.0275 4.2845-2.6452 8.395-5.5436 12.318-8.7151 10.172-8.0525 19.391-17.378 27.655-27.973 30.452-37.629 43.682-77.418 68.976-111.25 4.662-5.9334 9.8534-11.444 15.575-16.53 5.7215-4.8739 12.183-9.0079 19.388-12.398 3.7823-1.621 7.8171-2.8245 12.096-3.6187 0.11874-0.022 0.24215-0.0378 0.36133-0.0594 0.91208-0.16401 1.8324-0.31535 2.7666-0.44222 1.0421-0.14138 2.0959-0.26066 3.1657-0.35593 1.0759-0.0958 2.1694-0.16705 3.2736-0.21565 1.1358-0.0497 2.286-0.0753 3.4515-0.0753 6.1454 0 11.762 1.2699 16.848 3.8128 5.2977 2.7548 9.7452 6.3574 13.348 10.808 3.8143 4.662 6.7793 9.9597 8.8984 15.893 2.1191 6.1454 3.1819 12.612 3.1819 19.393 0 7.6287-1.1691 14.728-3.5001 21.297-2.1191 6.5692-5.1903 12.186-9.2166 16.848-4.0263 4.8739-8.8988 8.5828-14.62 11.126-5.5096 2.7548-11.551 4.131-18.12 4.131-9.7478 0-18.861-2.7578-27.337-8.2675-1.6545-1.103-3.2355-2.2469-4.8052-3.3922-1.4013-1.0371-2.7762-2.0896-4.1202-3.1549-5e-3 -3e-3 -0.0111-5e-3 -0.0167-0.0111-4.6138-3.6581-8.8711-7.4925-12.674-11.557-1.7523-1.8554-3.4533-3.7973-5.1287-5.7813l-36.527 57.786c2.6162 3.2912 5.3747 6.514 8.2836 9.6588 1.672 1.8075 3.3948 3.5416 5.1342 5.2528 1.1242 1.1061 2.2775 2.17 3.4299 3.2358 0.75766 0.7021 1.517 1.4021 2.2867 2.0871 1.0014 0.88889 2.0142 1.7616 3.0362 2.621 1.0892 0.9191 2.1931 1.8164 3.3059 2.7019 0.80545 0.63879 1.6038 1.2879 2.4215 1.9091 2.009 1.5307 4.0466 3.0221 6.1318 4.4438 9.5359 6.3572 19.6 11.336 30.195 14.939 10.807 3.8144 22.04 5.722 33.695 5.722 18.648 0 35.179-3.7089 49.589-11.126 14.622-7.2049 26.912-16.844 36.872-28.923 9.9598-12.079 17.478-25.963 22.564-41.645 5.2977-15.681 7.9492-31.888 7.9492-48.629 0-19.496-3.1775-37.828-9.5348-54.992-6.3573-16.953-15.47-31.788-27.337-44.503-11.655-12.503-25.853-22.46-42.594-29.877-16.529-7.2049-34.967-10.808-55.311-10.808-2.7267 0-5.3978 0.0963-8.041 0.23718-0.82679 0.0442-1.6568 0.0878-2.4754 0.14552-0.51745 0.0367-1.0336 0.0712-1.5478 0.11321-1.307 0.10686-2.6024 0.23498-3.8884 0.37751-0.39326 0.0436-0.78976 0.0825-1.181 0.1295-1.6559 0.19853-3.2978 0.41609-4.9184 0.67412-0.0249 3e-3 -0.0466 9e-3 -0.0701 0.0111-9e-3 2e-3 -0.0193 3e-3 -0.0276 5e-3 -15.403 2.465-29.212 7.622-41.424 15.472-51.027 35.293-68.697 98.554-104.58 142.72-3.8144 4.4501-8.161 8.8976-13.035 13.348-4.8739 4.4501-10.278 8.3716-16.211 11.762-4.1169 2.3525-8.4513 4.3798-12.976 6.1211-3e-3 2e-3 -9e-3 3e-3 -0.0111 5e-3 -1.9928 0.7668-4.011 1.4935-6.0833 2.141-6.7811 2.1191-13.986 3.1765-21.615 3.1765-10.172 0-18.859-1.8013-26.064-5.4038-6.993-3.3906-12.716-7.9443-17.166-13.666-4.2382-5.7215-7.4157-12.295-9.5348-19.711-1.9072-7.2049-2.8583-14.623-2.8583-22.251 0-8.2645 1.1637-15.996 3.4946-23.201 2.5429-6.993 6.3581-13.141 11.444-18.439 5.0858-5.0858 11.653-9.1082 19.706-12.075 8.0526-2.9667 17.697-4.4546 28.928-4.4546 13.138 0 24.897 2.3328 35.281 6.9947 2.1835 1.0044 4.2559 2.039 6.3044 3.0794 0.82839 0.42441 1.6644 0.84765 2.47 1.2782 0.74199 0.39266 1.4393 0.79959 2.1626 1.1972 2.223 1.2337 4.3867 2.4815 6.4446 3.7589 3.4374 2.1337 6.6989 4.3127 9.6373 6.5794 3.3808 2.6387 6.6095 5.4267 9.6966 8.3592l37.411-59.188c-3.5313-4.9577-7.2685-9.7532-11.255-14.345-0.0873-0.10024-0.16595-0.20737-0.25349-0.30741-8.4763-9.7478-18.115-18.329-28.923-25.746-10.595-7.2049-22.36-12.928-35.286-17.166-12.926-4.0263-27.018-6.0347-42.276-6.0347z" fill="#fff" mask="url(#b)"/>
 </g>
</svg>
